<svg width="24" height="29" viewBox="0 0 24 29" fill="none" xmlns="http://www.w3.org/2000/svg">
<path d="M11.6667 28.4375C13.2708 28.4375 14.5833 27.125 14.5833 25.5208H8.75C8.75 27.125 10.0625 28.4375 11.6667 28.4375ZM20.4167 19.6875V12.3958C20.4167 7.91875 18.0396 4.17083 13.8542 3.17917V2.1875C13.8542 0.977083 12.8771 0 11.6667 0C10.4562 0 9.47917 0.977083 9.47917 2.1875V3.17917C5.30833 4.17083 2.91667 7.90417 2.91667 12.3958V19.6875L0 22.6042V24.0625H23.3333V22.6042L20.4167 19.6875ZM17.5 21.1458H5.83333V12.3958C5.83333 8.77917 8.03542 5.83333 11.6667 5.83333C15.2979 5.83333 17.5 8.77917 17.5 12.3958V21.1458Z" fill="black"/>
</svg>
