<svg width="42" height="42" viewBox="0 0 42 42" fill="none" xmlns="http://www.w3.org/2000/svg">
<path d="M38.5 9.065L18.5325 29.05L11.1125 21.63L13.58 19.1625L18.5325 24.115L36.0325 6.615L38.5 9.065ZM34.6325 17.885C34.86 18.8825 35 19.9325 35 21C35 28.735 28.735 35 21 35C13.265 35 7 28.735 7 21C7 13.265 13.265 7 21 7C23.765 7 26.32 7.805 28.49 9.1875L31.01 6.6675C28.175 4.6725 24.7275 3.5 21 3.5C11.34 3.5 3.5 11.34 3.5 21C3.5 30.66 11.34 38.5 21 38.5C30.66 38.5 38.5 30.66 38.5 21C38.5 18.9175 38.115 16.9225 37.45 15.0675L34.6325 17.885Z" fill="#211F22" fill-opacity="0.26"/>
</svg>
