<svg width="500" height="281" viewBox="0 0 628 281" fill="none" xmlns="http://www.w3.org/2000/svg">
<rect x="6.86197" y="6.86197" width="56.1639" height="55.5615" stroke="url(#paint0_linear_470_2048)" stroke-width="13.7239"/>
<rect x="21.9013" y="83.1637" width="41.1247" height="40.6519" stroke="url(#paint1_linear_470_2048)" stroke-width="13.7239"/>
<rect x="84.7118" y="83.1637" width="63.2411" height="62.5777" stroke="url(#paint2_linear_470_2048)" stroke-width="13.7239"/>
<rect x="84.7118" y="28.7887" width="34.0475" height="33.6357" stroke="url(#paint3_linear_470_2048)" stroke-width="13.7239"/>
<path d="M210.902 153.711C206.715 153.711 202.778 152.885 199.092 151.234C195.406 149.553 192.162 147.253 189.361 144.333C186.589 141.384 184.406 137.964 182.814 134.071C181.251 130.179 180.47 126.021 180.47 121.598C180.47 117.174 181.251 113.016 182.814 109.124C184.406 105.231 186.589 101.826 189.361 98.9062C192.162 95.9573 195.406 93.6572 199.092 92.0058C202.778 90.325 206.715 89.4846 210.902 89.4846C215.915 89.4846 220.53 90.6494 224.747 92.979C228.964 95.3086 232.458 98.4048 235.23 102.268L227.047 106.647C225.13 104.229 222.756 102.297 219.925 100.852C217.095 99.4075 214.087 98.685 210.902 98.685C207.953 98.685 205.196 99.2895 202.63 100.499C200.065 101.708 197.809 103.359 195.863 105.453C193.917 107.546 192.398 109.979 191.307 112.751C190.216 115.523 189.67 118.472 189.67 121.598C189.67 124.753 190.216 127.716 191.307 130.488C192.398 133.231 193.917 135.664 195.863 137.787C197.839 139.88 200.109 141.532 202.675 142.741C205.24 143.92 207.983 144.51 210.902 144.51C214.146 144.51 217.168 143.788 219.97 142.343C222.801 140.868 225.16 138.922 227.047 136.504L235.23 140.972C232.458 144.835 228.964 147.931 224.747 150.26C220.53 152.561 215.915 153.711 210.902 153.711ZM283.646 124.827V152.561H274.446V127.082C274.446 125.107 273.959 123.308 272.986 121.686C272.043 120.064 270.76 118.781 269.138 117.838C267.546 116.865 265.747 116.378 263.741 116.378C261.795 116.378 260.011 116.865 258.389 117.838C256.767 118.781 255.47 120.064 254.497 121.686C253.524 123.308 253.037 125.107 253.037 127.082V152.561H243.837V86.2113H253.037V113.016C254.571 111.188 256.458 109.743 258.699 108.682C260.94 107.62 263.358 107.089 265.953 107.089C269.226 107.089 272.205 107.885 274.888 109.478C277.572 111.07 279.695 113.208 281.258 115.892C282.85 118.575 283.646 121.553 283.646 124.827ZM326.025 108.328H335.225V152.561H325.98L325.627 146.147C324.329 148.417 322.575 150.246 320.363 151.632C318.151 153.018 315.542 153.711 312.534 153.711C309.29 153.711 306.238 153.106 303.378 151.897C300.517 150.659 297.996 148.948 295.814 146.766C293.661 144.584 291.98 142.077 290.771 139.246C289.562 136.386 288.958 133.319 288.958 130.046C288.958 126.891 289.547 123.927 290.727 121.155C291.906 118.354 293.543 115.906 295.637 113.813C297.73 111.719 300.149 110.082 302.891 108.903C305.663 107.694 308.626 107.089 311.782 107.089C314.996 107.089 317.827 107.826 320.274 109.301C322.751 110.746 324.801 112.604 326.423 114.874L326.025 108.328ZM312.313 144.82C314.908 144.82 317.178 144.186 319.124 142.918C321.071 141.62 322.575 139.88 323.636 137.698C324.727 135.516 325.273 133.098 325.273 130.444C325.273 127.761 324.727 125.328 323.636 123.146C322.545 120.964 321.026 119.239 319.08 117.97C317.163 116.673 314.908 116.024 312.313 116.024C309.747 116.024 307.403 116.673 305.28 117.97C303.156 119.268 301.476 121.008 300.237 123.19C298.998 125.372 298.379 127.79 298.379 130.444C298.379 133.128 299.013 135.56 300.281 137.743C301.579 139.895 303.274 141.62 305.368 142.918C307.491 144.186 309.806 144.82 312.313 144.82ZM344.397 152.561V86.2113H353.598V152.561H344.397ZM364.181 152.561V86.2113H373.381V152.561H364.181ZM402.823 153.711C398.753 153.711 395.038 152.664 391.676 150.57C388.344 148.476 385.675 145.675 383.67 142.166C381.694 138.627 380.706 134.72 380.706 130.444C380.706 127.2 381.281 124.178 382.431 121.376C383.581 118.546 385.159 116.068 387.164 113.945C389.199 111.793 391.558 110.112 394.241 108.903C396.925 107.694 399.785 107.089 402.823 107.089C406.214 107.089 409.325 107.797 412.156 109.212C414.987 110.598 417.405 112.53 419.41 115.007C421.415 117.454 422.89 120.285 423.833 123.5C424.777 126.684 425.057 130.076 424.674 133.673H390.57C390.953 135.708 391.691 137.551 392.782 139.202C393.902 140.824 395.318 142.107 397.028 143.05C398.768 143.994 400.699 144.481 402.823 144.51C405.064 144.51 407.098 143.95 408.927 142.829C410.784 141.709 412.303 140.161 413.483 138.185L422.816 140.352C421.046 144.274 418.378 147.489 414.81 149.995C411.242 152.472 407.246 153.711 402.823 153.711ZM390.26 126.64H415.385C415.09 124.517 414.338 122.6 413.129 120.89C411.949 119.15 410.46 117.779 408.661 116.776C406.892 115.744 404.946 115.228 402.823 115.228C400.729 115.228 398.783 115.729 396.984 116.732C395.215 117.735 393.74 119.106 392.561 120.846C391.41 122.556 390.644 124.487 390.26 126.64ZM471.808 124.827V152.561H462.608V127.082C462.608 125.107 462.121 123.308 461.148 121.686C460.205 120.064 458.922 118.781 457.3 117.838C455.708 116.865 453.909 116.378 451.904 116.378C449.957 116.378 448.173 116.865 446.552 117.838C444.93 118.781 443.632 120.064 442.659 121.686C441.686 123.308 441.199 125.107 441.199 127.082V152.561H431.999V108.328H441.199V113.016C442.733 111.188 444.62 109.743 446.861 108.682C449.102 107.62 451.52 107.089 454.115 107.089C457.389 107.089 460.367 107.885 463.05 109.478C465.734 111.07 467.857 113.208 469.42 115.892C471.012 118.575 471.808 121.553 471.808 124.827ZM513.435 108.328H522.635V153.711C522.635 156.748 521.987 159.549 520.689 162.115C519.421 164.68 517.696 166.892 515.514 168.75C513.332 170.637 510.825 172.097 507.994 173.129C505.193 174.161 502.259 174.677 499.192 174.677C496.096 174.677 493.117 174.013 490.257 172.686C487.397 171.389 484.875 169.62 482.693 167.379C480.541 165.137 478.933 162.601 477.872 159.77L486.32 155.966C486.91 157.795 487.854 159.417 489.151 160.832C490.478 162.248 492.012 163.368 493.751 164.194C495.521 165.019 497.334 165.432 499.192 165.432C501.02 165.432 502.775 165.137 504.456 164.548C506.166 163.987 507.685 163.191 509.012 162.159C510.368 161.127 511.445 159.888 512.241 158.444C513.037 156.999 513.435 155.421 513.435 153.711V146.235C511.99 148.476 510.132 150.29 507.862 151.676C505.591 153.032 502.952 153.711 499.944 153.711C496.818 153.711 493.869 153.106 491.097 151.897C488.325 150.688 485.893 149.022 483.799 146.899C481.705 144.746 480.069 142.269 478.889 139.468C477.71 136.666 477.12 133.658 477.12 130.444C477.12 127.23 477.71 124.222 478.889 121.421C480.069 118.59 481.705 116.113 483.799 113.99C485.893 111.837 488.325 110.156 491.097 108.947C493.869 107.738 496.818 107.133 499.944 107.133C502.952 107.133 505.591 107.826 507.862 109.212C510.132 110.569 511.99 112.382 513.435 114.653V108.328ZM500.032 144.82C502.598 144.82 504.839 144.171 506.756 142.874C508.673 141.547 510.162 139.792 511.223 137.61C512.285 135.428 512.816 133.039 512.816 130.444C512.816 127.79 512.27 125.387 511.179 123.234C510.118 121.052 508.628 119.312 506.712 118.015C504.795 116.688 502.568 116.024 500.032 116.024C497.555 116.024 495.285 116.673 493.221 117.97C491.186 119.268 489.564 121.008 488.355 123.19C487.146 125.372 486.541 127.79 486.541 130.444C486.541 133.098 487.146 135.516 488.355 137.698C489.594 139.88 491.23 141.62 493.265 142.918C495.329 144.186 497.585 144.82 500.032 144.82ZM551.935 153.711C547.866 153.711 544.15 152.664 540.789 150.57C537.457 148.476 534.788 145.675 532.783 142.166C530.807 138.627 529.819 134.72 529.819 130.444C529.819 127.2 530.394 124.178 531.544 121.376C532.694 118.546 534.272 116.068 536.277 113.945C538.312 111.793 540.671 110.112 543.354 108.903C546.038 107.694 548.898 107.089 551.935 107.089C555.327 107.089 558.438 107.797 561.269 109.212C564.099 110.598 566.518 112.53 568.523 115.007C570.528 117.454 572.002 120.285 572.946 123.5C573.89 126.684 574.17 130.076 573.786 133.673H539.683C540.066 135.708 540.804 137.551 541.895 139.202C543.015 140.824 544.431 142.107 546.141 143.05C547.881 143.994 549.812 144.481 551.935 144.51C554.177 144.51 556.211 143.95 558.04 142.829C559.897 141.709 561.416 140.161 562.596 138.185L571.929 140.352C570.159 144.274 567.491 147.489 563.923 149.995C560.354 152.472 556.359 153.711 551.935 153.711ZM539.373 126.64H564.498C564.203 124.517 563.451 122.6 562.242 120.89C561.062 119.15 559.573 117.779 557.774 116.776C556.005 115.744 554.059 115.228 551.935 115.228C549.842 115.228 547.896 115.729 546.097 116.732C544.327 117.735 542.853 119.106 541.673 120.846C540.523 122.556 539.757 124.487 539.373 126.64ZM581.112 152.561V108.328H590.312V113.016C591.846 111.188 593.733 109.743 595.974 108.682C598.215 107.62 600.633 107.089 603.228 107.089C604.88 107.089 606.516 107.31 608.138 107.753L604.467 117.042C603.317 116.599 602.167 116.378 601.017 116.378C599.07 116.378 597.286 116.865 595.664 117.838C594.043 118.781 592.745 120.064 591.772 121.686C590.799 123.308 590.312 125.107 590.312 127.082V152.561H581.112ZM204.311 259.711C200.92 259.711 197.662 259.18 194.536 258.118C191.41 257.057 188.682 255.538 186.353 253.562C184.023 251.557 182.357 249.183 181.354 246.441L189.98 243.212C190.481 244.627 191.44 245.895 192.855 247.016C194.3 248.107 196.01 248.962 197.986 249.581C199.991 250.201 202.1 250.51 204.311 250.51C206.67 250.51 208.882 250.127 210.946 249.36C213.04 248.593 214.721 247.532 215.989 246.175C217.286 244.819 217.935 243.227 217.935 241.398C217.935 239.511 217.257 237.963 215.9 236.754C214.573 235.545 212.863 234.586 210.769 233.879C208.705 233.171 206.552 232.64 204.311 232.286C199.976 231.579 196.084 230.546 192.634 229.19C189.213 227.833 186.5 225.931 184.495 223.484C182.519 221.036 181.531 217.852 181.531 213.93C181.531 210.244 182.578 207.029 184.672 204.287C186.795 201.544 189.582 199.421 193.032 197.917C196.512 196.384 200.271 195.617 204.311 195.617C207.643 195.617 210.858 196.148 213.954 197.21C217.08 198.242 219.822 199.76 222.181 201.766C224.57 203.741 226.28 206.145 227.312 208.976L218.598 212.116C218.097 210.671 217.139 209.418 215.723 208.356C214.308 207.265 212.598 206.41 210.592 205.791C208.617 205.172 206.523 204.862 204.311 204.862C201.952 204.832 199.741 205.216 197.676 206.012C195.642 206.779 193.976 207.84 192.678 209.197C191.381 210.553 190.732 212.131 190.732 213.93C190.732 216.141 191.336 217.822 192.545 218.972C193.754 220.122 195.376 220.977 197.411 221.538C199.475 222.068 201.775 222.555 204.311 222.997C208.381 223.646 212.14 224.722 215.591 226.226C219.07 227.73 221.857 229.736 223.951 232.242C226.074 234.719 227.135 237.771 227.135 241.398C227.135 245.055 226.074 248.269 223.951 251.041C221.857 253.783 219.07 255.921 215.591 257.455C212.14 258.959 208.381 259.711 204.311 259.711ZM256.501 259.799C252.225 259.799 248.318 258.752 244.779 256.659C241.27 254.565 238.469 251.749 236.375 248.21C234.282 244.671 233.235 240.749 233.235 236.444C233.235 233.23 233.839 230.222 235.048 227.421C236.257 224.619 237.923 222.157 240.047 220.034C242.199 217.881 244.676 216.2 247.478 214.991C250.279 213.782 253.287 213.178 256.501 213.178C259.627 213.178 262.34 213.885 264.64 215.301C266.94 216.716 268.827 218.559 270.302 220.83V214.328H279.502V280.677H270.302V252.147C268.827 254.388 266.94 256.231 264.64 257.676C262.34 259.091 259.627 259.799 256.501 259.799ZM256.59 222.068C254.024 222.068 251.68 222.717 249.557 224.015C247.433 225.312 245.753 227.052 244.514 229.234C243.276 231.416 242.656 233.82 242.656 236.444C242.656 239.128 243.29 241.56 244.558 243.743C245.826 245.925 247.507 247.665 249.601 248.962C251.724 250.23 254.054 250.864 256.59 250.864C259.185 250.864 261.455 250.215 263.401 248.918C265.348 247.62 266.852 245.88 267.913 243.698C268.975 241.516 269.506 239.098 269.506 236.444C269.506 233.79 268.96 231.387 267.869 229.234C266.807 227.052 265.303 225.312 263.357 224.015C261.44 222.717 259.185 222.068 256.59 222.068ZM287.251 241.973V214.328H296.451V239.717C296.451 241.693 296.938 243.492 297.911 245.114C298.884 246.736 300.181 248.033 301.803 249.006C303.425 249.95 305.209 250.422 307.155 250.422C309.131 250.422 310.915 249.95 312.507 249.006C314.129 248.033 315.412 246.736 316.356 245.114C317.329 243.492 317.815 241.693 317.815 239.717V214.328H327.016L327.06 258.561H317.86L317.815 253.783C316.311 255.612 314.439 257.057 312.198 258.118C309.957 259.18 307.553 259.711 304.988 259.711C301.715 259.711 298.736 258.914 296.053 257.322C293.369 255.73 291.231 253.592 289.639 250.908C288.047 248.225 287.251 245.246 287.251 241.973ZM369.739 214.328H378.94V258.561H369.695L369.341 252.147C368.044 254.417 366.289 256.246 364.077 257.632C361.866 259.018 359.256 259.711 356.248 259.711C353.004 259.711 349.952 259.106 347.092 257.897C344.232 256.659 341.71 254.948 339.528 252.766C337.376 250.584 335.695 248.077 334.486 245.246C333.277 242.386 332.672 239.319 332.672 236.046C332.672 232.891 333.262 229.927 334.441 227.155C335.621 224.354 337.258 221.906 339.351 219.813C341.445 217.719 343.863 216.082 346.605 214.903C349.377 213.694 352.341 213.089 355.496 213.089C358.71 213.089 361.541 213.826 363.989 215.301C366.466 216.746 368.515 218.604 370.137 220.874L369.739 214.328ZM356.027 250.82C358.622 250.82 360.893 250.186 362.839 248.918C364.785 247.62 366.289 245.88 367.351 243.698C368.442 241.516 368.987 239.098 368.987 236.444C368.987 233.761 368.442 231.328 367.351 229.146C366.26 226.964 364.741 225.239 362.795 223.97C360.878 222.673 358.622 222.024 356.027 222.024C353.462 222.024 351.117 222.673 348.994 223.97C346.871 225.268 345.19 227.008 343.951 229.19C342.713 231.372 342.094 233.79 342.094 236.444C342.094 239.128 342.728 241.56 343.996 243.743C345.293 245.895 346.989 247.62 349.082 248.918C351.206 250.186 353.52 250.82 356.027 250.82ZM387.766 258.561V214.328H396.967V219.016C398.5 217.188 400.387 215.743 402.628 214.682C404.869 213.62 407.288 213.089 409.883 213.089C411.534 213.089 413.171 213.31 414.792 213.753L411.121 223.042C409.971 222.599 408.821 222.378 407.671 222.378C405.725 222.378 403.941 222.865 402.319 223.838C400.697 224.781 399.399 226.064 398.426 227.686C397.453 229.308 396.967 231.107 396.967 233.082V258.561H387.766ZM437.293 259.711C433.224 259.711 429.508 258.664 426.146 256.57C422.814 254.476 420.145 251.675 418.14 248.166C416.165 244.627 415.177 240.72 415.177 236.444C415.177 233.2 415.752 230.178 416.902 227.376C418.052 224.546 419.629 222.068 421.635 219.945C423.669 217.793 426.028 216.112 428.712 214.903C431.395 213.694 434.256 213.089 437.293 213.089C440.684 213.089 443.795 213.797 446.626 215.212C449.457 216.598 451.875 218.53 453.88 221.007C455.886 223.454 457.36 226.285 458.304 229.5C459.247 232.684 459.527 236.076 459.144 239.673H425.041C425.424 241.708 426.161 243.551 427.252 245.202C428.373 246.824 429.788 248.107 431.499 249.05C433.238 249.994 435.17 250.481 437.293 250.51C439.534 250.51 441.569 249.95 443.397 248.829C445.255 247.709 446.774 246.161 447.953 244.185L457.286 246.352C455.517 250.274 452.848 253.489 449.28 255.995C445.712 258.472 441.716 259.711 437.293 259.711ZM424.731 232.64H449.855C449.56 230.517 448.808 228.6 447.599 226.89C446.42 225.15 444.931 223.779 443.132 222.776C441.362 221.744 439.416 221.228 437.293 221.228C435.199 221.228 433.253 221.729 431.454 222.732C429.685 223.735 428.211 225.106 427.031 226.846C425.881 228.556 425.114 230.487 424.731 232.64Z" fill="black"/>
<defs>
<linearGradient id="paint0_linear_470_2048" x1="34.9439" y1="0" x2="34.9439" y2="69.2854" gradientUnits="userSpaceOnUse">
<stop stop-color="#F9A8D4"/>
<stop offset="0.342222" stop-color="#D8B4FE"/>
<stop offset="1" stop-color="#818CF8"/>
</linearGradient>
<linearGradient id="paint1_linear_470_2048" x1="42.4636" y1="76.3018" x2="42.4636" y2="130.678" gradientUnits="userSpaceOnUse">
<stop stop-color="#F9A8D4"/>
<stop offset="0.342222" stop-color="#D8B4FE"/>
<stop offset="1" stop-color="#818CF8"/>
</linearGradient>
<linearGradient id="paint2_linear_470_2048" x1="116.332" y1="76.3018" x2="116.332" y2="152.603" gradientUnits="userSpaceOnUse">
<stop stop-color="#F9A8D4"/>
<stop offset="0.342222" stop-color="#D8B4FE"/>
<stop offset="1" stop-color="#818CF8"/>
</linearGradient>
<linearGradient id="paint3_linear_470_2048" x1="101.736" y1="21.9268" x2="101.736" y2="69.2864" gradientUnits="userSpaceOnUse">
<stop stop-color="#F9A8D4"/>
<stop offset="0.342222" stop-color="#D8B4FE"/>
<stop offset="1" stop-color="#818CF8"/>
</linearGradient>
</defs>
</svg>
