<svg width="100" height="100" viewBox="0 0 100 100" fill="none" xmlns="http://www.w3.org/2000/svg">
<path d="M72.9167 85.4167H14.5833V27.0833H52.0833V18.75H14.5833C10 18.75 6.25 22.5 6.25 27.0833V85.4167C6.25 90 10 93.75 14.5833 93.75H72.9167C77.5 93.75 81.25 90 81.25 85.4167V47.9167H72.9167V85.4167ZM40.4583 72.2083L32.2917 62.375L20.8333 77.0833H66.6667L51.9167 57.4583L40.4583 72.2083ZM81.25 18.75V6.25H72.9167V18.75H60.4167C60.4583 18.7917 60.4167 27.0833 60.4167 27.0833H72.9167V39.5417C72.9583 39.5833 81.25 39.5417 81.25 39.5417V27.0833H93.75V18.75H81.25Z" fill="black" fill-opacity="0.54"/>
</svg>
